<svg xmlns="http://www.w3.org/2000/svg" viewBox="0 0 249.35 65.95"><defs><style>.cls-4{fill:#fff}</style></defs><g style="isolation:isolate"><g id="Layer_2" data-name="Layer 2"><g id="Layer_1-2" data-name="Layer 1" style="mix-blend-mode:hard-light"><g style="mix-blend-mode:soft-light"><path d="M122.83 13.44c-1.15 1.58-2.69 2.85-4.12 4.17-.92.85-1.89 1.65-2.85 2.45-.66.54-1.34.57-1.84.14-.87-.73-1.18-1.79-1.11-3.02.05-.92.19-1.89.28-2.83-.05 0-.09-.02-.14-.02-.26.47-.52.97-.75 1.44-.9 1.91-1.93 3.77-3.32 5.49-.4.5-.75 1.04-1.2 1.48-.35.35-.92.85-1.27.85-.4 0-.75-.4-.94-.75-.71-1.23-.17-2.66.68-4.08.97-1.58 2.05-3.13 3.06-4.69.64-.97 1.25-1.93 1.81-2.92.33-.57.71-.9 1.3-.9.38-.59.78-1.18 1.15-1.74.61-.94 1.11-1.11 1.84-.59.78.54.9 1.44.8 2.4-.12 1.23-.33 2.5-.49 3.75-.12.9-.21 1.81-.33 2.71.05.02 2.73-2.47 3.56-3.23 1.53-1.41 2.73-3.06 3.94-4.71.4-.57.85-1.13 1.32-1.65.17-.17.59-.26.78-.21 1.11.31 2.78 1.58 2.55 2.99-.47 2.9-2.33 5.77-3.68 8.63-.59 1.25-1.08 2.52-1.58 3.79-.28.73-.66 1.23-1.2 1.32-.42.07-.92-.42-1.06-.92-.31-1.06.09-2.22.57-3.35.75-1.77 1.6-3.51 2.38-5.26.14-.28.19-.61.33-1.06-.24.17-.38.21-.45.31Zm9.62 8.02c-.45.19-.71.12-1.04 0-.07-.02-.17-.05-.33-.09-.42.66-.87 1.32-1.27 1.98-.42.68-.82 1.34-1.25 2.03-.28.45-.64.47-.94.35-.64-.24-1.08-.68-1.18-1.41-.07-.49-.17-1.46.14-1.91.9-1.37 1.77-2.73 2.64-4.1.61-.97 1.2-1.91 1.74-2.9.5-.85.9-1.74 1.34-2.62q.96-1.875 1.89-3.75c.09-.21.17-.4.24-.61.17-.5.45-.87.92-1.23.33-.26.54-.71.8-1.06.24-.28.47-.59.75-.82.35-.31 1.15.26 1.39.52.28.31.54.61.83.92.52.54.99 1.34.97 2.14-.02 1.27-.07 2.57-.17 3.87-.09 1.2-.33 2.4-.73 3.65-.09.31-.09.59.17.73.52.28.54.92.75 1.44.12.28-.14.64-.52.78s-.78.28-1.15.45c-.12.05-.28.21-.31.33-.38 1.18-.75 2.38-1.11 3.56-.07.28-.09.54-.21.82-.24.61-1.32.94-1.79.71-.47-.26-.92-.61-1.04-1.18-.09-.47.07-1.08.17-1.65.09-.52.26-1.04.45-1.67-.73.26-1.46.42-2.14.73Zm.4-3.51c.26-.02.64 0 .8-.05.61-.17 1.25-.33 1.86-.54.17-.05.38-.26.42-.42.28-.92 1.53-4.64 1.23-6.25l-.42-.42c-.09-.09-.31-.05-.38.12-1.3 2.43-2.29 5.07-3.51 7.57Z" class="cls-4"/><path d="M140.39 20.7c1.46-.38 2.92-.78 4.36-1.27 1.13-.38 2.26-.92 3.37-1.39 0-.05.02-.09.02-.14l-1.91-.35c-1.51-.33-2.88-.87-3.65-2.1-.57-.85-.73-1.93-.14-3.13.31-.59.85-1.18 1.37-1.67 1.51-1.41 3.16-2.47 5.09-2.9 1.15-.26 1.91.12 2.59.59.78.52 1.34 1.25 1.63 2.19.31.97-.07 1.7-1.23 2.33-.31-.47-.61-.9-.87-1.39-.4-.8-1.3-.9-2.24-.52-1.23.5-2.24 1.25-3.11 2.29-.57.66-.54 1.01.14 1.2 1.01.26 2.07.38 3.09.64 1.18.28 2.38.54 3.46 1.01.5.21.75.82.94 1.37.21.61-.21 1.18-1.08 1.86-1.65 1.27-3.46 1.89-5.28 2.52-1.15.4-2.33.73-3.49 1.06-1.18.33-2.31.31-3.32.09-.57-.09-.87-.78-1.18-1.11.33-.87.82-1.01 1.44-1.18m16.55-10.63c-.54.24-1.11.42-1.67.57-1.04.26-1.32.07-1.65-.75-.17-.42-.31-.82-.19-1.37.09-.42.33-.64.71-.78 2.07-.78 4.15-1.23 6.2-1.37 1.32-.09 2.69-.19 3.98-.21 1.37-.02 2.66.19 3.63.94.28.21.38.61.52.9-.61 1.11-1.44.78-2.14.87-.66.09-1.27.09-1.79.12-.45 1.25-.87 2.45-1.27 3.65-.31.87-.47 1.79-.8 2.66-.57 1.56-1.15 3.11-1.77 4.64-.35.87-.73 1.74-1.25 2.57-.4.66-.99 1.3-1.56 1.86-.38.38-.75.24-1.01-.09-.61-.75-.24-1.72.12-2.66.73-1.91 1.25-3.79 1.96-5.7.49-1.37.82-2.73 1.23-4.1.24-.85.49-1.7.75-2.64-1.48.17-2.55.31-3.98.9Zm16.59 9.39c.45-.12.9-.09 1.34-.12.09 0 .19.02.28.02.42-.02.82.28.82.66 0 .26 0 .49-.07.75-.17.66-.78.99-1.34 1.23-1.44.59-2.88 1.18-4.34 1.63-1.13.35-2.29.73-3.37.42-.94-.28-1.46-.94-1.13-2 .33-1.01.83-2.03 1.15-3.04.5-1.56.94-3.11 1.39-4.67.17-.59-.4-.68-.73-.87-.42-.24-.64-.47-.5-1.04.05-.21.07-.42.09-.66.02-.09.05-.19.12-.26 1.2-1.46 2.66-2.57 4.43-3.23.85-.31 1.72-.71 2.57-.92 1.46-.35 2.97-.82 4.36-.52.94.21 1.53.78 1.86 1.58.19.45.26.94.26 1.46 0 .61-.94 1.25-1.53 1.06-.17-.05-.31-.09-.49-.09-.4 0-.5-.24-.35-.59.14-.31.07-.45-.26-.49-.92-.17-1.89.12-2.85.38-.92.26-1.86.64-2.78.99-.33.12-.66.28-.9.52-.17.17-.24.47-.28.71-.14.85-.28 1.72-.42 2.64.59-.14 1.08-.31 1.58-.4 1.46-.28 2.95-.78 4.38-.78.78 0 1.34.42 1.44 1.11.02.17.14.33.14.49.02.24.05.47-.07.68-.12.24-.35.4-.68.42-.75.09-1.53.21-2.29.42-1.65.45-3.28.97-4.93 1.44-.35.09-.52.28-.61.57-.21.57-.38 1.11-.61 1.72 1.48-.42 2.9-.85 4.31-1.23Zm17.94 2.94c-.19.59-.82 1.15-1.53 1.27-.66.12-1.3.19-1.96.24-1.32.12-2.57.09-3.77-.12-.85-.17-1.32-.73-1.84-1.27l-.17-.17s-.09.02-.14.02c-.09.42-.24.85-.31 1.27-.12.66-.45 1.01-1.11 1.13-.64.12-1.08-.24-1.08-.78.02-1.77.02-3.54 0-5.3-.02-1.72.31-3.46 1.13-5.23.12-.28.14-.54.19-.83.09-.73.12-1.46.28-2.22.12-.52.57-.68 1.04-.61.28.05.57.17.85.14.19-.02.42-.19.61-.35 1.37-1.15 2.8-2.5 4.45-3.06 1.84-.61 3.51-.59 5.02.05.5.21.92.66 1.16 1.15.45.9.24 1.96-.4 3.09-1.04 1.81-2.47 3.39-4.08 4.81-1.39 1.23-2.8 2.45-4.22 3.65-.17.14-.33.28-.47.45-.52.57-.54.66.05.87.68.24 1.41.45 2.14.54.8.12 1.72.28 2.52.38.59.07 1.08.28 1.63.47.07.02.07.26 0 .4Zm-7.54-5.07c1.7-1.44 6.46-6.03 7.17-7.28.17-.31-.02-.54-.35-.52-5.26.38-5.59 2.07-6.84 3.65-.12.17-.21.19-.17.35.4 1.18-.09 3.21-.19 4.03.19-.09.28-.17.38-.24Zm25.1-.45v6.52h-4.04v-6.45l-4.52-10.39h4.45l.77 2.24c.63 1.83 1.15 3.58 1.35 4.86.17-1.27.72-3.03 1.35-4.86l.77-2.24h4.38l-4.5 10.32Zm9.48 6.78c-3.78 0-5.99-2.72-5.99-8.66s2.26-8.71 6.04-8.71 6.01 2.74 6.01 8.66-2.26 8.71-6.06 8.71m.02-13.91c-1.28 0-1.88 1.13-1.88 5.2s.65 5.24 1.9 5.24 1.88-1.13 1.88-5.2-.65-5.24-1.9-5.24m12.49 13.91c-3.49 0-5.73-1.92-5.73-6.06V6.56h4.07v11.16c0 1.61.53 2.45 1.73 2.45s1.66-.84 1.66-2.45V6.56h4.07v10.95c0 4.26-2.21 6.16-5.8 6.16Zm14-.27-1.97-6.45h-1.08v6.45h-3.95V6.56h5.82c3.03 0 5.22 1.37 5.22 5.12 0 2.19-.84 3.61-2.21 4.43l2.45 7.29h-4.28Zm-1.47-13.64h-1.59v4.11h1.52c1.15 0 1.59-.67 1.59-2.07s-.41-2.04-1.52-2.04M105.39 59.84V28.69h6.23v31.15zm18.15 0-2.22-7.16c-1.07-3.52-2.22-7.65-2.67-9.79.09 2.14.18 5.96.18 9.3v7.65h-5.7V28.69h5.38l1.51 4.58c1.16 3.52 2.49 8.01 2.98 10.14-.13-2.05-.27-6.54-.27-9.7v-5.03h5.7v31.15h-4.89Zm16.78 0-2.22-7.16c-1.07-3.52-2.22-7.65-2.67-9.79.09 2.14.18 5.96.18 9.3v7.65h-5.7V28.69h5.38l1.51 4.58c1.16 3.52 2.49 8.01 2.98 10.14-.13-2.05-.27-6.54-.27-9.7v-5.03h5.7v31.15h-4.89Zm6.36 0V28.69h12.64v5.52h-6.41v6.45h4.89v5.52h-4.89v8.14h6.67v5.52zm22.56 0-2.18-13.3h-.53v13.3h-6.1V28.69h7.61c3.92 0 7.16 2.36 7.16 8.81 0 3.43-.93 5.83-2.58 7.3l2.85 15.04zm-2.09-26.34h-.62v8.41h.53c1.47 0 1.91-1.2 1.91-4.18 0-3.2-.4-4.23-1.82-4.23m25.56 26.78c-5.56 0-7.83-4.67-7.83-16.06s2.36-16.06 7.96-16.06c5.25 0 6.81 3.92 7.21 9.88L194 39.11c-.18-4.58-.27-5.65-1.25-5.65-1.2 0-1.47 1.42-1.47 10.77S191.5 55 192.88 55c1.16 0 1.42-.98 1.42-3.96V48.5h-1.6v-4.98h7.56v5.96c0 6.27-2.05 10.81-7.56 10.81Zm17.44-.49-.62-6.05h-2.94l-.58 6.05h-6.05l4.81-31.15h6.59l4.76 31.15h-5.96Zm-1.29-13.39c-.22-2.8-.67-7.21-.89-10.77-.18 3.56-.58 7.96-.85 10.81l-.18 2h2.09l-.18-2.05Zm20.73 13.39v-6.41c0-3.6.09-6.85.22-9.7-.44 2.54-1.47 6.63-2.31 10.01l-1.78 7.03-1.78-7.03c-.85-3.34-1.82-7.48-2.27-10.01.09 2.71.22 6.14.22 9.7v6.41h-5.43V28.64h5.61l1.65 6.99c.8 3.47 1.65 7.16 2 9.79.36-2.63 1.25-6.41 2.05-9.83l1.6-6.94h5.61V59.8h-5.38Zm6.86 0V28.64h12.64v5.52h-6.41v6.45h4.89v5.52h-4.89v8.14h6.67v5.52zM14.28 2.28c.14-.09.52 0 .71.05 1.99.62 4.07 1.09 5.96 1.89 2.51 1.04 4.16 3.5 5.25 5.91.8 1.75.85 3.78.57 5.96-.66 5.11-3.83 9.37-7.95 13.29-3.17 3.03-6.72 5.39-10.45 7.47-1.28.71-2.6 1.23-3.93 1.66-1.42.47-2.55.33-3.5-.66-.8-.85.09-1.84-.05-2.7-.05-.05.52-.43.85-.57.57-.24.71-.57.71-1.04 0-2.6 5.49-18.26 7.76-23.46.71-1.7.61-2.08-1.14-1.99-2.13.14-3.17 1.42-5.3 2.46-.38.19-.71.66-1.04.71C.04 11.79-.48 8.01.38 5.97c.14-.38.71-.8 1.14-.95 1.32-.57 2.7-1.23 4.07-1.51 1.89-.47 3.78-.66 5.72-.95.99 0 1.89.52 2.98-.28Zm-1.23 16.56c-.99 2.32-3.78 8.94-4.26 10.27-.33.95.43.57 1.28 0 3.83-2.41 5.58-3.97 8.37-7.57 1.18-1.56 2.27-3.17 2.6-4.92.85-4.35-.14-6.01-3.41-7.33-.85-.33-1.04-.19-1.32.85-.09.38-.24.76-.33 1.14.05 0-1.84 5.06-2.93 7.57Zm43.86-1.09c-.57.76-8.09 3.17-8.09 3.17s-.8 2.37-1.14 3.64c-.9 3.45-2.84 6.86-2.74 10.27 0 .9-.99 2.22-1.8 2.51-1.04.38-2.03 0-2.51-1.14-.33-.8-.47-1.7-.52-2.6-.05-2.79 1.66-9.6 1.7-9.89-10.12 3.41-12.63 9.37-12.49 9.51.76-.52.99-.85 1.8-1.32.28-.14.24.76.09.99-1.23 1.84-1.56 3.41-2.89 5.2-.76 1.04-3.97 3.36-5.06 3.03s-.85-1.37-1.04-2.55c-.19-1.42.38-2.74.95-4.07q.705-1.56 1.56-3.12c.38-.66.28-1.23 0-1.75-.8-1.51-.57-5.39 1.28-5.96 2.03-.62 2.98-2.22 3.6-3.74.76-1.8.52-8.14.9-10.17.14-.71.24-1.47.47-2.18.38-1.23 1.32-1.28 2.55-1.04 4.83.85 4.07 6.24 3.6 7.99-.52 2.03-1.09 3.97-1.75 6.15.66-.24 5.35-1.66 7.47-2.65.43-.19.95-.71 1.09-1.18.43-1.37.76-2.79 1.09-4.21.05-.14-.05-.28-.09-.52-.24.14-.43.19-.66.24-.28.09-.47-.05-.38-.33.33-1.14.62-2.13 1.04-3.22.85-2.27 2.08-4.45 2.51-6.76.33-1.75 1.7-2.6 3.31-1.66.8.47 3.69.05 3.69 1.18 0 .24.05.52-.05.76-.95 3.88-3.07 8.66-4.02 12.54 0 .33-.05.57-.09.76 2.22-.38 8.28-.71 6.62 2.13ZM3.12 46.77c.89 0 1.57.25 2.03.74.47.49.7 1.2.7 2.1s-.23 1.6-.7 2.1-1.14.75-2.03.75H.51v-5.69zm-.22 4.4c.43 0 .72-.13.89-.38.17-.26.25-.65.25-1.18s-.08-.92-.25-1.18-.46-.38-.89-.38h-.64v3.12zm4.9-4.4v5.69H6.04v-5.69zm2.81 2.16v1.32H6.89v-1.32zm.8-2.16v5.69H9.64v-5.69zm2.16 0v5.69h-1.76v-5.69zm3.32 0c.71 0 1.25.16 1.64.49s.58.76.58 1.3c0 .6-.19 1.06-.57 1.37s-.93.47-1.64.47l-.17.09H15.7v1.97h-1.72v-5.69zm-.28 2.51c.25 0 .43-.05.56-.14.12-.09.19-.25.19-.47s-.06-.38-.19-.47c-.12-.1-.31-.15-.56-.15h-.9v1.23zm1.04.38 1.79 2.8h-1.92l-1.39-2.49z" class="cls-4"/><path d="M19.35 52.46v-5.69h4.59v1.32h-2.83v.92h2.26v1.22h-2.26v.91h2.94v1.32zm10.13-5.69v5.69h-1.93L26 49.64l-.36-.77h-.02l.03 1.12v2.47h-1.53v-5.69h1.92l1.55 2.82.37.77-.03-1.12v-2.47h1.54Zm-27.22 6.7v5.69H.51v-5.69h1.76Zm2.81 2.17v1.32H1.36v-1.32h3.72Zm.81-2.17v5.69H4.11v-5.69z" class="cls-4"/><path d="M11.68 59.16H9.87l-.32-1.18H7.82l-.33 1.18H5.73l1.91-5.69h2.11l1.92 5.69Zm-3.57-2.32h1.16l-.58-2.12z" class="cls-4"/><path d="M14.44 53.47c.71 0 1.25.16 1.64.49s.58.76.58 1.3c0 .6-.19 1.06-.57 1.37s-.93.47-1.64.47l-.17.09h-1.03v1.97h-1.72v-5.69zm-.28 2.52c.25 0 .43-.05.56-.14.12-.09.19-.25.19-.47s-.06-.38-.19-.47c-.12-.1-.31-.15-.56-.15h-.9v1.23zm1.04.37 1.79 2.8h-1.92l-1.39-2.49zm6.84 1.11c-.1.42-.28.76-.52 1.03s-.54.46-.89.57c-.35.12-.73.18-1.15.18-.59 0-1.09-.12-1.52-.35s-.76-.57-.99-1c-.23-.44-.34-.96-.34-1.58s.11-1.14.34-1.58.56-.77.99-1 .93-.35 1.51-.35c.41 0 .79.06 1.14.17.35.12.64.29.88.53s.41.55.49.94l-1.53.61c-.06-.37-.17-.61-.33-.73s-.36-.18-.61-.18c-.23 0-.43.06-.59.18s-.29.29-.37.53c-.08.23-.13.53-.13.88s.04.64.12.88.2.41.36.53.38.18.64.18c.24 0 .43-.07.59-.21s.27-.35.32-.65l1.57.42Zm1.77-4v5.69h-1.76v-5.69zm2.81 2.17v1.32H22.9v-1.32zm.8-2.17v5.69h-1.77v-5.69z" class="cls-4"/><path d="M33.22 59.16h-1.81l-.32-1.18h-1.73l-.33 1.18h-1.76l1.91-5.69h2.11l1.92 5.69Zm-3.57-2.32h1.16l-.58-2.12z" class="cls-4"/><path d="M38.43 53.47v5.69H36.5l-1.55-2.82-.36-.77h-.02l.03 1.12v2.47h-1.53v-5.69h1.92l1.55 2.82.37.77-.03-1.12v-2.47h1.54Zm3.02 0c.89 0 1.57.25 2.03.74.47.49.7 1.2.7 2.1s-.23 1.6-.7 2.1-1.14.75-2.03.75h-2.61v-5.69zm-.21 4.41c.43 0 .72-.13.89-.38.17-.26.25-.65.25-1.18s-.08-.92-.25-1.18-.46-.38-.89-.38h-.64v3.12zm8.31 1.28h-1.81l-.32-1.18h-1.73l-.33 1.18H43.6l1.91-5.69h2.11l1.92 5.69Zm-3.56-2.32h1.16l-.58-2.12z" class="cls-4"/><path d="M54.77 53.47v5.69h-1.93l-1.55-2.82-.36-.77h-.02l.03 1.12v2.47h-1.53v-5.69h1.92l1.55 2.82.37.77-.03-1.12v-2.47h1.54Zm2.16 0v5.69h-1.76v-5.69zM1.26 64.23c.31 0 .55.07.72.22s.25.36.25.63-.08.48-.25.63-.41.22-.72.22-.53-.07-.71-.22c-.17-.15-.26-.36-.26-.63s.09-.48.26-.63.41-.22.71-.22m6.14-.05c-.1.42-.28.76-.52 1.03s-.54.46-.89.57c-.35.12-.73.18-1.15.18-.59 0-1.09-.12-1.52-.35s-.76-.57-.99-1c-.23-.44-.34-.96-.34-1.58s.11-1.14.34-1.58.56-.77.99-1 .93-.35 1.51-.35c.41 0 .79.06 1.14.17.35.12.64.29.88.53s.41.55.49.94l-1.53.61c-.06-.37-.17-.61-.33-.73s-.36-.18-.61-.18c-.23 0-.43.06-.59.18s-.29.29-.37.53c-.08.23-.13.53-.13.88s.04.64.12.88.2.41.36.53.38.18.64.18c.24 0 .43-.07.59-.21s.27-.35.32-.65l1.57.42Z" class="cls-4"/><path d="M10.05 60.09c.59 0 1.1.12 1.52.35s.75.57.97 1c.23.44.34.96.34 1.58s-.11 1.14-.34 1.58-.55.77-.97 1-.93.35-1.52.35-1.09-.12-1.52-.35-.76-.57-.99-1c-.23-.44-.34-.96-.34-1.58s.11-1.14.34-1.58.56-.77.99-1 .94-.35 1.52-.35m0 1.35c-.24 0-.43.06-.58.18s-.27.29-.34.52c-.08.23-.12.53-.12.89s.04.65.12.88.19.41.34.53.35.18.58.18.42-.06.58-.18.27-.29.34-.53c.07-.23.11-.53.11-.88s-.04-.66-.11-.89-.19-.4-.34-.52a.93.93 0 0 0-.58-.18m10.01-1.26v5.69h-1.55v-2.28l.03-1.84h-.02l-1.25 4.11h-1.41l-1.23-4.11h-.03l.03 1.84v2.28h-1.55v-5.69h2.48l.77 2.7.28 1.13h.02l.28-1.13.77-2.7h2.37Z" class="cls-4"/></g><path d="M122.83 13.44c-1.15 1.58-2.69 2.85-4.12 4.17-.92.85-1.89 1.65-2.85 2.45-.66.54-1.34.57-1.84.14-.87-.73-1.18-1.79-1.11-3.02.05-.92.19-1.89.28-2.83-.05 0-.09-.02-.14-.02-.26.47-.52.97-.75 1.44-.9 1.91-1.93 3.77-3.32 5.49-.4.5-.75 1.04-1.2 1.48-.35.35-.92.85-1.27.85-.4 0-.75-.4-.94-.75-.71-1.23-.17-2.66.68-4.08.97-1.58 2.05-3.13 3.06-4.69.64-.97 1.25-1.93 1.81-2.92.33-.57.71-.9 1.3-.9.38-.59.78-1.18 1.15-1.74.61-.94 1.11-1.11 1.84-.59.78.54.9 1.44.8 2.4-.12 1.23-.33 2.5-.49 3.75-.12.9-.21 1.81-.33 2.71.05.02 2.73-2.47 3.56-3.23 1.53-1.41 2.73-3.06 3.94-4.71.4-.57.85-1.13 1.32-1.65.17-.17.59-.26.78-.21 1.11.31 2.78 1.58 2.55 2.99-.47 2.9-2.33 5.77-3.68 8.63-.59 1.25-1.08 2.52-1.58 3.79-.28.73-.66 1.23-1.2 1.32-.42.07-.92-.42-1.06-.92-.31-1.06.09-2.22.57-3.35.75-1.77 1.6-3.51 2.38-5.26.14-.28.19-.61.33-1.06-.24.17-.38.21-.45.31Zm9.62 8.02c-.45.19-.71.12-1.04 0-.07-.02-.17-.05-.33-.09-.42.66-.87 1.32-1.27 1.98-.42.68-.82 1.34-1.25 2.03-.28.45-.64.47-.94.35-.64-.24-1.08-.68-1.18-1.41-.07-.49-.17-1.46.14-1.91.9-1.37 1.77-2.73 2.64-4.1.61-.97 1.2-1.91 1.74-2.9.5-.85.9-1.74 1.34-2.62q.96-1.875 1.89-3.75c.09-.21.17-.4.24-.61.17-.5.45-.87.92-1.23.33-.26.54-.71.8-1.06.24-.28.47-.59.75-.82.35-.31 1.15.26 1.39.52.28.31.54.61.83.92.52.54.99 1.34.97 2.14-.02 1.27-.07 2.57-.17 3.87-.09 1.2-.33 2.4-.73 3.65-.09.31-.09.59.17.73.52.28.54.92.75 1.44.12.28-.14.64-.52.78s-.78.28-1.15.45c-.12.05-.28.21-.31.33-.38 1.18-.75 2.38-1.11 3.56-.07.28-.09.54-.21.82-.24.61-1.32.94-1.79.71-.47-.26-.92-.61-1.04-1.18-.09-.47.07-1.08.17-1.65.09-.52.26-1.04.45-1.67-.73.26-1.46.42-2.14.73Zm.4-3.51c.26-.02.64 0 .8-.05.61-.17 1.25-.33 1.86-.54.17-.05.38-.26.42-.42.28-.92 1.53-4.64 1.23-6.25l-.42-.42c-.09-.09-.31-.05-.38.12-1.3 2.43-2.29 5.07-3.51 7.57Z" class="cls-4"/><path d="M140.39 20.7c1.46-.38 2.92-.78 4.36-1.27 1.13-.38 2.26-.92 3.37-1.39 0-.05.02-.09.02-.14l-1.91-.35c-1.51-.33-2.88-.87-3.65-2.1-.57-.85-.73-1.93-.14-3.13.31-.59.85-1.18 1.37-1.67 1.51-1.41 3.16-2.47 5.09-2.9 1.15-.26 1.91.12 2.59.59.78.52 1.34 1.25 1.63 2.19.31.97-.07 1.7-1.23 2.33-.31-.47-.61-.9-.87-1.39-.4-.8-1.3-.9-2.24-.52-1.23.5-2.24 1.25-3.11 2.29-.57.66-.54 1.01.14 1.2 1.01.26 2.07.38 3.09.64 1.18.28 2.38.54 3.46 1.01.5.21.75.82.94 1.37.21.61-.21 1.18-1.08 1.86-1.65 1.27-3.46 1.89-5.28 2.52-1.15.4-2.33.73-3.49 1.06-1.18.33-2.31.31-3.32.09-.57-.09-.87-.78-1.18-1.11.33-.87.82-1.01 1.44-1.18m16.55-10.63c-.54.24-1.11.42-1.67.57-1.04.26-1.32.07-1.65-.75-.17-.42-.31-.82-.19-1.37.09-.42.33-.64.71-.78 2.07-.78 4.15-1.23 6.2-1.37 1.32-.09 2.69-.19 3.98-.21 1.37-.02 2.66.19 3.63.94.28.21.38.61.52.9-.61 1.11-1.44.78-2.14.87-.66.09-1.27.09-1.79.12-.45 1.25-.87 2.45-1.27 3.65-.31.87-.47 1.79-.8 2.66-.57 1.56-1.15 3.11-1.77 4.64-.35.87-.73 1.74-1.25 2.57-.4.66-.99 1.3-1.56 1.86-.38.38-.75.24-1.01-.09-.61-.75-.24-1.72.12-2.66.73-1.91 1.25-3.79 1.96-5.7.49-1.37.82-2.73 1.23-4.1.24-.85.49-1.7.75-2.64-1.48.17-2.55.31-3.98.9Zm16.59 9.39c.45-.12.9-.09 1.34-.12.09 0 .19.02.28.02.42-.02.82.28.82.66 0 .26 0 .49-.07.75-.17.66-.78.99-1.34 1.23-1.44.59-2.88 1.18-4.34 1.63-1.13.35-2.29.73-3.37.42-.94-.28-1.46-.94-1.13-2 .33-1.01.83-2.03 1.15-3.04.5-1.56.94-3.11 1.39-4.67.17-.59-.4-.68-.73-.87-.42-.24-.64-.47-.5-1.04.05-.21.07-.42.09-.66.02-.09.05-.19.12-.26 1.2-1.46 2.66-2.57 4.43-3.23.85-.31 1.72-.71 2.57-.92 1.46-.35 2.97-.82 4.36-.52.94.21 1.53.78 1.86 1.58.19.45.26.94.26 1.46 0 .61-.94 1.25-1.53 1.06-.17-.05-.31-.09-.49-.09-.4 0-.5-.24-.35-.59.14-.31.07-.45-.26-.49-.92-.17-1.89.12-2.85.38-.92.26-1.86.64-2.78.99-.33.12-.66.28-.9.52-.17.17-.24.47-.28.71-.14.85-.28 1.72-.42 2.64.59-.14 1.08-.31 1.58-.4 1.46-.28 2.95-.78 4.38-.78.78 0 1.34.42 1.44 1.11.02.17.14.33.14.49.02.24.05.47-.07.68-.12.24-.35.4-.68.42-.75.09-1.53.21-2.29.42-1.65.45-3.28.97-4.93 1.44-.35.09-.52.28-.61.57-.21.57-.38 1.11-.61 1.72 1.48-.42 2.9-.85 4.31-1.23Zm17.94 2.94c-.19.59-.82 1.15-1.53 1.27-.66.12-1.3.19-1.96.24-1.32.12-2.57.09-3.77-.12-.85-.17-1.32-.73-1.84-1.27l-.17-.17s-.09.02-.14.02c-.09.42-.24.85-.31 1.27-.12.66-.45 1.01-1.11 1.13-.64.12-1.08-.24-1.08-.78.02-1.77.02-3.54 0-5.3-.02-1.72.31-3.46 1.13-5.23.12-.28.14-.54.19-.83.09-.73.12-1.46.28-2.22.12-.52.57-.68 1.04-.61.28.05.57.17.85.14.19-.02.42-.19.61-.35 1.37-1.15 2.8-2.5 4.45-3.06 1.84-.61 3.51-.59 5.02.05.5.21.92.66 1.16 1.15.45.9.24 1.96-.4 3.09-1.04 1.81-2.47 3.39-4.08 4.81-1.39 1.23-2.8 2.45-4.22 3.65-.17.14-.33.28-.47.45-.52.57-.54.66.05.87.68.24 1.41.45 2.14.54.8.12 1.72.28 2.52.38.59.07 1.08.28 1.63.47.07.02.07.26 0 .4Zm-7.54-5.07c1.7-1.44 6.46-6.03 7.17-7.28.17-.31-.02-.54-.35-.52-5.26.38-5.59 2.07-6.84 3.65-.12.17-.21.19-.17.35.4 1.18-.09 3.21-.19 4.03.19-.09.28-.17.38-.24Zm25.1-.45v6.52h-4.04v-6.45l-4.52-10.39h4.45l.77 2.24c.63 1.83 1.15 3.58 1.35 4.86.17-1.27.72-3.03 1.35-4.86l.77-2.24h4.38l-4.5 10.32Zm9.48 6.78c-3.78 0-5.99-2.72-5.99-8.66s2.26-8.71 6.04-8.71 6.01 2.74 6.01 8.66-2.26 8.71-6.06 8.71m.02-13.91c-1.28 0-1.88 1.13-1.88 5.2s.65 5.24 1.9 5.24 1.88-1.13 1.88-5.2-.65-5.24-1.9-5.24m12.49 13.91c-3.49 0-5.73-1.92-5.73-6.06V6.56h4.07v11.16c0 1.61.53 2.45 1.73 2.45s1.66-.84 1.66-2.45V6.56h4.07v10.95c0 4.26-2.21 6.16-5.8 6.16Zm14-.27-1.97-6.45h-1.08v6.45h-3.95V6.56h5.82c3.03 0 5.22 1.37 5.22 5.12 0 2.19-.84 3.61-2.21 4.43l2.45 7.29h-4.28Zm-1.47-13.64h-1.59v4.11h1.52c1.15 0 1.59-.67 1.59-2.07s-.41-2.04-1.52-2.04M105.39 59.84V28.69h6.23v31.15zm18.15 0-2.22-7.16c-1.07-3.52-2.22-7.65-2.67-9.79.09 2.14.18 5.96.18 9.3v7.65h-5.7V28.69h5.38l1.51 4.58c1.16 3.52 2.49 8.01 2.98 10.14-.13-2.05-.27-6.54-.27-9.7v-5.03h5.7v31.15h-4.89Zm16.78 0-2.22-7.16c-1.07-3.52-2.22-7.65-2.67-9.79.09 2.14.18 5.96.18 9.3v7.65h-5.7V28.69h5.38l1.51 4.58c1.16 3.52 2.49 8.01 2.98 10.14-.13-2.05-.27-6.54-.27-9.7v-5.03h5.7v31.15h-4.89Zm6.36 0V28.69h12.64v5.52h-6.41v6.45h4.89v5.52h-4.89v8.14h6.67v5.52zm22.56 0-2.18-13.3h-.53v13.3h-6.1V28.69h7.61c3.92 0 7.16 2.36 7.16 8.81 0 3.43-.93 5.83-2.58 7.3l2.85 15.04zm-2.09-26.34h-.62v8.41h.53c1.47 0 1.91-1.2 1.91-4.18 0-3.2-.4-4.23-1.82-4.23m25.56 26.78c-5.56 0-7.83-4.67-7.83-16.06s2.36-16.06 7.96-16.06c5.25 0 6.81 3.92 7.21 9.88L194 39.11c-.18-4.58-.27-5.65-1.25-5.65-1.2 0-1.47 1.42-1.47 10.77S191.5 55 192.88 55c1.16 0 1.42-.98 1.42-3.96V48.5h-1.6v-4.98h7.56v5.96c0 6.27-2.05 10.81-7.56 10.81Zm17.44-.49-.62-6.05h-2.94l-.58 6.05h-6.05l4.81-31.15h6.59l4.76 31.15h-5.96Zm-1.29-13.39c-.22-2.8-.67-7.21-.89-10.77-.18 3.56-.58 7.96-.85 10.81l-.18 2h2.09l-.18-2.05Zm20.73 13.39v-6.41c0-3.6.09-6.85.22-9.7-.44 2.54-1.47 6.63-2.31 10.01l-1.78 7.03-1.78-7.03c-.85-3.34-1.82-7.48-2.27-10.01.09 2.71.22 6.14.22 9.7v6.41h-5.43V28.64h5.61l1.65 6.99c.8 3.47 1.65 7.16 2 9.79.36-2.63 1.25-6.41 2.05-9.83l1.6-6.94h5.61V59.8h-5.38Zm6.86 0V28.64h12.64v5.52h-6.41v6.45h4.89v5.52h-4.89v8.14h6.67v5.52zM14.28 2.28c.14-.09.52 0 .71.05 1.99.62 4.07 1.09 5.96 1.89 2.51 1.04 4.16 3.5 5.25 5.91.8 1.75.85 3.78.57 5.96-.66 5.11-3.83 9.37-7.95 13.29-3.17 3.03-6.72 5.39-10.45 7.47-1.28.71-2.6 1.23-3.93 1.66-1.42.47-2.55.33-3.5-.66-.8-.85.09-1.84-.05-2.7-.05-.05.52-.43.85-.57.57-.24.71-.57.71-1.04 0-2.6 5.49-18.26 7.76-23.46.71-1.7.61-2.08-1.14-1.99-2.13.14-3.17 1.42-5.3 2.46-.38.19-.71.66-1.04.71C.04 11.79-.48 8.01.38 5.97c.14-.38.71-.8 1.14-.95 1.32-.57 2.7-1.23 4.07-1.51 1.89-.47 3.78-.66 5.72-.95.99 0 1.89.52 2.98-.28Zm-1.23 16.56c-.99 2.32-3.78 8.94-4.26 10.27-.33.95.43.57 1.28 0 3.83-2.41 5.58-3.97 8.37-7.57 1.18-1.56 2.27-3.17 2.6-4.92.85-4.35-.14-6.01-3.41-7.33-.85-.33-1.04-.19-1.32.85-.09.38-.24.76-.33 1.14.05 0-1.84 5.06-2.93 7.57Zm43.86-1.09c-.57.76-8.09 3.17-8.09 3.17s-.8 2.37-1.14 3.64c-.9 3.45-2.84 6.86-2.74 10.27 0 .9-.99 2.22-1.8 2.51-1.04.38-2.03 0-2.51-1.14-.33-.8-.47-1.7-.52-2.6-.05-2.79 1.66-9.6 1.7-9.89-10.12 3.41-12.63 9.37-12.49 9.51.76-.52.99-.85 1.8-1.32.28-.14.24.76.09.99-1.23 1.84-1.56 3.41-2.89 5.2-.76 1.04-3.97 3.36-5.06 3.03s-.85-1.37-1.04-2.55c-.19-1.42.38-2.74.95-4.07q.705-1.56 1.56-3.12c.38-.66.28-1.23 0-1.75-.8-1.51-.57-5.39 1.28-5.96 2.03-.62 2.98-2.22 3.6-3.74.76-1.8.52-8.14.9-10.17.14-.71.24-1.47.47-2.18.38-1.23 1.32-1.28 2.55-1.04 4.83.85 4.07 6.24 3.6 7.99-.52 2.03-1.09 3.97-1.75 6.15.66-.24 5.35-1.66 7.47-2.65.43-.19.95-.71 1.09-1.18.43-1.37.76-2.79 1.09-4.21.05-.14-.05-.28-.09-.52-.24.14-.43.19-.66.24-.28.09-.47-.05-.38-.33.33-1.14.62-2.13 1.04-3.22.85-2.27 2.08-4.45 2.51-6.76.33-1.75 1.7-2.6 3.31-1.66.8.47 3.69.05 3.69 1.18 0 .24.05.52-.05.76-.95 3.88-3.07 8.66-4.02 12.54 0 .33-.05.57-.09.76 2.22-.38 8.28-.71 6.62 2.13ZM3.12 46.77c.89 0 1.57.25 2.03.74.47.49.7 1.2.7 2.1s-.23 1.6-.7 2.1-1.14.75-2.03.75H.51v-5.69zm-.22 4.4c.43 0 .72-.13.89-.38.17-.26.25-.65.25-1.18s-.08-.92-.25-1.18-.46-.38-.89-.38h-.64v3.12zm4.9-4.4v5.69H6.04v-5.69zm2.81 2.16v1.32H6.89v-1.32zm.8-2.16v5.69H9.64v-5.69zm2.16 0v5.69h-1.76v-5.69zm3.32 0c.71 0 1.25.16 1.64.49s.58.76.58 1.3c0 .6-.19 1.06-.57 1.37s-.93.47-1.64.47l-.17.09H15.7v1.97h-1.72v-5.69zm-.28 2.51c.25 0 .43-.05.56-.14.12-.09.19-.25.19-.47s-.06-.38-.19-.47c-.12-.1-.31-.15-.56-.15h-.9v1.23zm1.04.38 1.79 2.8h-1.92l-1.39-2.49z" class="cls-4"/><path d="M19.35 52.46v-5.69h4.59v1.32h-2.83v.92h2.26v1.22h-2.26v.91h2.94v1.32zm10.13-5.69v5.69h-1.93L26 49.64l-.36-.77h-.02l.03 1.12v2.47h-1.53v-5.69h1.92l1.55 2.82.37.77-.03-1.12v-2.47h1.54Zm-27.22 6.7v5.69H.51v-5.69h1.76Zm2.81 2.17v1.32H1.36v-1.32h3.72Zm.81-2.17v5.69H4.11v-5.69z" class="cls-4"/><path d="M11.68 59.16H9.87l-.32-1.18H7.82l-.33 1.18H5.73l1.91-5.69h2.11l1.92 5.69Zm-3.57-2.32h1.16l-.58-2.12z" class="cls-4"/><path d="M14.44 53.47c.71 0 1.25.16 1.64.49s.58.76.58 1.3c0 .6-.19 1.06-.57 1.37s-.93.47-1.64.47l-.17.09h-1.03v1.97h-1.72v-5.69zm-.28 2.52c.25 0 .43-.05.56-.14.12-.09.19-.25.19-.47s-.06-.38-.19-.47c-.12-.1-.31-.15-.56-.15h-.9v1.23zm1.04.37 1.79 2.8h-1.92l-1.39-2.49zm6.84 1.11c-.1.42-.28.76-.52 1.03s-.54.46-.89.57c-.35.12-.73.18-1.15.18-.59 0-1.09-.12-1.52-.35s-.76-.57-.99-1c-.23-.44-.34-.96-.34-1.58s.11-1.14.34-1.58.56-.77.99-1 .93-.35 1.51-.35c.41 0 .79.06 1.14.17.35.12.64.29.88.53s.41.55.49.94l-1.53.61c-.06-.37-.17-.61-.33-.73s-.36-.18-.61-.18c-.23 0-.43.06-.59.18s-.29.29-.37.53c-.08.23-.13.53-.13.88s.04.64.12.88.2.41.36.53.38.18.64.18c.24 0 .43-.07.59-.21s.27-.35.32-.65l1.57.42Zm1.77-4v5.69h-1.76v-5.69zm2.81 2.17v1.32H22.9v-1.32zm.8-2.17v5.69h-1.77v-5.69z" class="cls-4"/><path d="M33.22 59.16h-1.81l-.32-1.18h-1.73l-.33 1.18h-1.76l1.91-5.69h2.11l1.92 5.69Zm-3.57-2.32h1.16l-.58-2.12z" class="cls-4"/><path d="M38.43 53.47v5.69H36.5l-1.55-2.82-.36-.77h-.02l.03 1.12v2.47h-1.53v-5.69h1.92l1.55 2.82.37.77-.03-1.12v-2.47h1.54Zm3.02 0c.89 0 1.57.25 2.03.74.47.49.7 1.2.7 2.1s-.23 1.6-.7 2.1-1.14.75-2.03.75h-2.61v-5.69zm-.21 4.41c.43 0 .72-.13.89-.38.17-.26.25-.65.25-1.18s-.08-.92-.25-1.18-.46-.38-.89-.38h-.64v3.12zm8.31 1.28h-1.81l-.32-1.18h-1.73l-.33 1.18H43.6l1.91-5.69h2.11l1.92 5.69Zm-3.56-2.32h1.16l-.58-2.12z" class="cls-4"/><path d="M54.77 53.47v5.69h-1.93l-1.55-2.82-.36-.77h-.02l.03 1.12v2.47h-1.53v-5.69h1.92l1.55 2.82.37.77-.03-1.12v-2.47h1.54Zm2.16 0v5.69h-1.76v-5.69zM1.26 64.23c.31 0 .55.07.72.22s.25.36.25.63-.08.48-.25.63-.41.22-.72.22-.53-.07-.71-.22c-.17-.15-.26-.36-.26-.63s.09-.48.26-.63.41-.22.71-.22m6.14-.05c-.1.42-.28.76-.52 1.03s-.54.46-.89.57c-.35.12-.73.18-1.15.18-.59 0-1.09-.12-1.52-.35s-.76-.57-.99-1c-.23-.44-.34-.96-.34-1.58s.11-1.14.34-1.58.56-.77.99-1 .93-.35 1.51-.35c.41 0 .79.06 1.14.17.35.12.64.29.88.53s.41.55.49.94l-1.53.61c-.06-.37-.17-.61-.33-.73s-.36-.18-.61-.18c-.23 0-.43.06-.59.18s-.29.29-.37.53c-.08.23-.13.53-.13.88s.04.64.12.88.2.41.36.53.38.18.64.18c.24 0 .43-.07.59-.21s.27-.35.32-.65l1.57.42Z" class="cls-4"/><path d="M10.05 60.09c.59 0 1.1.12 1.52.35s.75.57.97 1c.23.44.34.96.34 1.58s-.11 1.14-.34 1.58-.55.77-.97 1-.93.35-1.52.35-1.09-.12-1.52-.35-.76-.57-.99-1c-.23-.44-.34-.96-.34-1.58s.11-1.14.34-1.58.56-.77.99-1 .94-.35 1.52-.35m0 1.35c-.24 0-.43.06-.58.18s-.27.29-.34.52c-.08.23-.12.53-.12.89s.04.65.12.88.19.41.34.53.35.18.58.18.42-.06.58-.18.27-.29.34-.53c.07-.23.11-.53.11-.88s-.04-.66-.11-.89-.19-.4-.34-.52a.93.93 0 0 0-.58-.18m10.01-1.26v5.69h-1.55v-2.28l.03-1.84h-.02l-1.25 4.11h-1.41l-1.23-4.11h-.03l.03 1.84v2.28h-1.55v-5.69h2.48l.77 2.7.28 1.13h.02l.28-1.13.77-2.7h2.37Z" class="cls-4"/><path d="M82.16 5.22v60.73" style="fill:none;stroke:#fff;stroke-miterlimit:10"/></g></g></g></svg>